<svg xmlns="http://www.w3.org/2000/svg" version="1.1" xmlns:xlink="http://www.w3.org/1999/xlink" xmlns:svgjs="http://svgjs.dev/svgjs" viewBox="0 0 800 800"><rect width="100%" height="100%" fill="#080808"></rect><g fill="hsl(0, 0%, 34%)"><rect width="135" height="1" x="528.5" y="583.5" rx="0.5" transform="rotate(47, 596, 584)" opacity="0.82"></rect><rect width="188" height="1" x="579" y="541.5" rx="0.5" transform="rotate(47, 673, 542)" opacity="1.00"></rect><rect width="316" height="1" x="273" y="223.5" rx="0.5" transform="rotate(47, 431, 224)" opacity="0.24"></rect><rect width="532" height="1" x="-185" y="598.5" rx="0.5" transform="rotate(47, 81, 599)" opacity="0.24"></rect><rect width="287" height="1" x="-46.5" y="477.5" rx="0.5" transform="rotate(47, 97, 478)" opacity="0.10"></rect><rect width="509" height="1" x="49.5" y="163.5" rx="0.5" transform="rotate(47, 304, 164)" opacity="0.82"></rect><rect width="40" height="1" x="694" y="48.5" rx="0.5" transform="rotate(47, 714, 49)" opacity="0.42"></rect><rect width="316" height="1" x="368" y="593.5" rx="0.5" transform="rotate(47, 526, 594)" opacity="0.96"></rect><rect width="233" height="1" x="627.5" y="282.5" rx="0.5" transform="rotate(47, 744, 283)" opacity="0.84"></rect><rect width="72" height="1" x="419" y="37.5" rx="0.5" transform="rotate(47, 455, 38)" opacity="0.88"></rect><rect width="453" height="1" x="-61.5" y="655.5" rx="0.5" transform="rotate(47, 165, 656)" opacity="0.37"></rect><rect width="256" height="1" x="413" y="182.5" rx="0.5" transform="rotate(47, 541, 183)" opacity="0.87"></rect><rect width="38" height="1" x="190" y="229.5" rx="0.5" transform="rotate(47, 209, 230)" opacity="0.56"></rect><rect width="193" height="1" x="191.5" y="536.5" rx="0.5" transform="rotate(47, 288, 537)" opacity="0.38"></rect><rect width="333" height="1" x="582.5" y="203.5" rx="0.5" transform="rotate(47, 749, 204)" opacity="0.94"></rect><rect width="333" height="1" x="465.5" y="659.5" rx="0.5" transform="rotate(47, 632, 660)" opacity="0.25"></rect><rect width="621" height="1" x="229.5" y="739.5" rx="0.5" transform="rotate(47, 540, 740)" opacity="0.74"></rect><rect width="486" height="1" x="147" y="536.5" rx="0.5" transform="rotate(47, 390, 537)" opacity="0.22"></rect><rect width="117" height="1" x="402.5" y="475.5" rx="0.5" transform="rotate(47, 461, 476)" opacity="0.68"></rect><rect width="321" height="1" x="-16.5" y="304.5" rx="0.5" transform="rotate(47, 144, 305)" opacity="0.67"></rect><rect width="269" height="1" x="-104.5" y="249.5" rx="0.5" transform="rotate(47, 30, 250)" opacity="0.47"></rect><rect width="310" height="1" x="487" y="755.5" rx="0.5" transform="rotate(47, 642, 756)" opacity="0.70"></rect><rect width="602" height="1" x="-159" y="391.5" rx="0.5" transform="rotate(47, 142, 392)" opacity="0.34"></rect><rect width="221" height="1" x="219.5" y="45.5" rx="0.5" transform="rotate(47, 330, 46)" opacity="0.56"></rect><rect width="279" height="1" x="610.5" y="603.5" rx="0.5" transform="rotate(47, 750, 604)" opacity="0.89"></rect><rect width="170" height="1" x="573" y="37.5" rx="0.5" transform="rotate(47, 658, 38)" opacity="0.15"></rect><rect width="314" height="1" x="59" y="56.5" rx="0.5" transform="rotate(47, 216, 57)" opacity="0.80"></rect><rect width="595" height="1" x="359.5" y="391.5" rx="0.5" transform="rotate(47, 657, 392)" opacity="0.26"></rect><rect width="184" height="1" x="155" y="705.5" rx="0.5" transform="rotate(47, 247, 706)" opacity="0.84"></rect><rect width="630" height="1" x="-149" y="157.5" rx="0.5" transform="rotate(47, 166, 158)" opacity="0.51"></rect><rect width="478" height="1" x="-210" y="540.5" rx="0.5" transform="rotate(47, 29, 541)" opacity="0.29"></rect><rect width="630" height="1" x="-105" y="469.5" rx="0.5" transform="rotate(47, 210, 470)" opacity="0.74"></rect><rect width="356" height="1" x="-96" y="49.5" rx="0.5" transform="rotate(47, 82, 50)" opacity="0.71"></rect><rect width="545" height="1" x="186.5" y="631.5" rx="0.5" transform="rotate(47, 459, 632)" opacity="0.96"></rect><rect width="426" height="1" x="359" y="38.5" rx="0.5" transform="rotate(47, 572, 39)" opacity="0.86"></rect><rect width="333" height="1" x="578.5" y="730.5" rx="0.5" transform="rotate(47, 745, 731)" opacity="0.48"></rect><rect width="340" height="1" x="416" y="490.5" rx="0.5" transform="rotate(47, 586, 491)" opacity="0.84"></rect><rect width="62" height="1" x="46" y="760.5" rx="0.5" transform="rotate(47, 77, 761)" opacity="0.65"></rect><rect width="693" height="1" x="150.5" y="311.5" rx="0.5" transform="rotate(47, 497, 312)" opacity="0.77"></rect><rect width="44" height="1" x="17" y="690.5" rx="0.5" transform="rotate(47, 39, 691)" opacity="0.91"></rect><rect width="69" height="1" x="418.5" y="733.5" rx="0.5" transform="rotate(47, 453, 734)" opacity="0.66"></rect><rect width="376" height="1" x="194" y="770.5" rx="0.5" transform="rotate(47, 382, 771)" opacity="0.64"></rect><rect width="111" height="1" x="642.5" y="146.5" rx="0.5" transform="rotate(47, 698, 147)" opacity="0.37"></rect><rect width="124" height="1" x="564" y="104.5" rx="0.5" transform="rotate(47, 626, 105)" opacity="0.24"></rect><rect width="568" height="1" x="470" y="368.5" rx="0.5" transform="rotate(47, 754, 369)" opacity="0.53"></rect><rect width="418" height="1" x="187" y="122.5" rx="0.5" transform="rotate(47, 396, 123)" opacity="0.24"></rect><rect width="709" height="1" x="191.5" y="396.5" rx="0.5" transform="rotate(47, 546, 397)" opacity="0.78"></rect><rect width="520" height="1" x="361" y="186.5" rx="0.5" transform="rotate(47, 621, 187)" opacity="0.24"></rect><rect width="239" height="1" x="648.5" y="113.5" rx="0.5" transform="rotate(47, 768, 114)" opacity="0.31"></rect><rect width="264" height="1" x="187" y="627.5" rx="0.5" transform="rotate(47, 319, 628)" opacity="0.56"></rect><rect width="643" height="1" x="425.5" y="472.5" rx="0.5" transform="rotate(47, 747, 473)" opacity="0.52"></rect><rect width="383" height="1" x="175.5" y="693.5" rx="0.5" transform="rotate(47, 367, 694)" opacity="0.45"></rect><rect width="448" height="1" x="-139" y="275.5" rx="0.5" transform="rotate(47, 85, 276)" opacity="0.88"></rect><rect width="114" height="1" x="570" y="276.5" rx="0.5" transform="rotate(47, 627, 277)" opacity="0.39"></rect><rect width="357" height="1" x="-141.5" y="395.5" rx="0.5" transform="rotate(47, 37, 396)" opacity="0.79"></rect><rect width="378" height="1" x="-139" y="143.5" rx="0.5" transform="rotate(47, 50, 144)" opacity="0.26"></rect><rect width="133" height="1" x="234.5" y="413.5" rx="0.5" transform="rotate(47, 301, 414)" opacity="0.68"></rect><rect width="119" height="1" x="117.5" y="755.5" rx="0.5" transform="rotate(47, 177, 756)" opacity="0.75"></rect><rect width="72" height="1" x="261" y="760.5" rx="0.5" transform="rotate(47, 297, 761)" opacity="0.23"></rect><rect width="93" height="1" x="131.5" y="560.5" rx="0.5" transform="rotate(47, 178, 561)" opacity="0.50"></rect><rect width="355" height="1" x="211.5" y="356.5" rx="0.5" transform="rotate(47, 389, 357)" opacity="0.15"></rect><rect width="176" height="1" x="413" y="110.5" rx="0.5" transform="rotate(47, 501, 111)" opacity="0.27"></rect><rect width="251" height="1" x="644.5" y="33.5" rx="0.5" transform="rotate(47, 770, 34)" opacity="0.75"></rect><rect width="62" height="1" x="195" y="330.5" rx="0.5" transform="rotate(47, 226, 331)" opacity="0.35"></rect><rect width="83" height="1" x="266.5" y="271.5" rx="0.5" transform="rotate(47, 308, 272)" opacity="0.11"></rect></g></svg>